<svg xmlns="http://www.w3.org/2000/svg" viewBox="0 0 32 32" width="32" height="32">
  <defs>
    <linearGradient id="brainGradient" x1="0%" y1="0%" x2="100%" y2="100%">
      <stop offset="0%" style="stop-color:#667eea;stop-opacity:1" />
      <stop offset="100%" style="stop-color:#764ba2;stop-opacity:1" />
    </linearGradient>
  </defs>
  
  <!-- Brain shape -->
  <path d="M16 4c-3.5 0-6.5 2-8 5-1 1.5-1 3.5 0 5 .5 1 1.5 2 2.5 2.5-.5 1-1 2-1 3.5 0 3 2.5 5.5 5.5 5.5 1.5 0 3-.5 4-1.5 1 1 2.5 1.5 4 1.5 3 0 5.5-2.5 5.5-5.5 0-1.5-.5-2.5-1-3.5 1-.5 2-1.5 2.5-2.5 1-1.5 1-3.5 0-5C22.5 6 19.5 4 16 4z" fill="url(#brainGradient)" stroke="#4a5568" stroke-width="0.5"/>
  
  <!-- Brain details -->
  <path d="M12 10c0 1 .5 2 1.5 2.5M20 10c0 1-.5 2-1.5 2.5M14 16c.5.5 1 1 2 1s1.5-.5 2-1M11 20c1 0 2-.5 2.5-1.5M21 20c-1 0-2-.5-2.5-1.5" stroke="#ffffff" stroke-width="1" fill="none" stroke-linecap="round"/>
  
  <!-- Sparkle effects -->
  <circle cx="8" cy="8" r="1" fill="#ffd700" opacity="0.8"/>
  <circle cx="24" cy="12" r="0.8" fill="#ffd700" opacity="0.6"/>
  <circle cx="26" cy="22" r="1.2" fill="#ffd700" opacity="0.7"/>
</svg> 